<svg width="75" height="70" viewBox="0 0 75 70" fill="none" xmlns="http://www.w3.org/2000/svg">
<path d="M14.3234 16.5998H12.5883C10.8325 19.7254 7.15976 26.994 6.51528 31.0635C5.8708 35.1329 6.78381 41.6661 7.32088 44.424C7.48614 44.3014 7.94058 44.0563 8.43633 44.0563C8.93209 44.0563 12.5676 45.6906 14.3234 46.5077L16.8022 45.1594C15.4389 41.3596 13.5798 40.5629 15.4389 29.1023C16.0032 25.6234 19.7767 17.5803 30.6214 14.3321C41.466 11.0839 49.3981 17.7029 47.4151 15.7417C45.8287 14.1728 45.5973 10.1442 45.68 8.32604C44.9157 8.18303 43.2384 7.79897 42.6435 7.40673C42.0486 7.0145 41.7759 6.14014 41.7139 5.75199C40.4745 5.50684 37.7851 5.00429 36.9423 4.95526C36.0995 4.90623 31.7988 5.46598 29.7538 5.75199L30.6214 8.75504L27.9567 12.8613L23.6188 10.8388L14.3234 14.945V16.5998Z" stroke="url(#paint0_radial_9_794)"/>
<path d="M4.71817 30.2667C4.86689 25.9521 8.74618 19.3577 10.6672 16.5998H7.32088L6.51528 14.945L4.71817 16.1095V19.0512L2.23939 20.3995L3.54075 23.6477L1 26.7734L2.73514 38.9082L1 42.4015L3.10696 45.7723L5.83362 44.7304C5.39983 41.7069 4.56944 34.5813 4.71817 30.2667Z" stroke="url(#paint1_radial_9_794)"/>
<path d="M24.2385 9.12277C23.8419 8.92665 19.6528 10.8797 17.6078 11.8807C18.3928 11.0839 20.3964 9.2576 22.1316 8.32604C23.8667 7.39448 26.738 6.467 27.9567 6.11971L28.6384 8.75504L27.275 10.8388C26.4281 10.3485 24.6351 9.31888 24.2385 9.12277Z" stroke="url(#paint2_radial_9_794)"/>
<path d="M37.7479 1.09419C37.3017 1.63351 34.4635 2.91237 33.1002 3.48438H40.4745C39.7516 2.46293 38.1941 0.554867 37.7479 1.09419Z" stroke="url(#paint3_radial_9_794)"/>
<path d="M24.0526 48.285L19.4669 46.0787C20.3138 47.141 22.4166 49.6701 24.0526 51.2881C25.6886 52.9061 27.7915 54.0052 28.6384 54.3524L27.5849 47.7335L30.3115 45.7723C29.7538 45.2003 28.502 43.9705 27.9567 43.6273C27.4114 43.284 26.2422 41.2371 25.7258 40.2565L25.1681 41.7886L26.8413 45.1594L24.0526 48.285Z" stroke="url(#paint4_radial_9_794)"/>
<path d="M29.5059 48.285L32.0467 46.5077C34.4842 47.1002 40.239 47.7825 43.7589 45.7723C48.1587 43.2595 49.8319 36.8244 48.7784 32.1053C47.725 27.3862 42.3336 24.0155 38.2436 23.6477C34.1537 23.28 30.3115 23.6477 26.8413 28.4894C24.065 32.3627 24.569 36.804 25.1681 38.5404L22.6893 41.7886L24.2385 44.7304L23.247 45.7723C22.4621 45.425 20.7063 44.5956 19.9626 44.0563C19.219 43.5169 18.5374 43.8315 18.2895 44.0563C17.5872 40.2565 16.4676 31.8234 17.6078 28.4894C19.0331 24.3219 24.2385 15.7417 34.7733 15.3127C43.2012 14.9695 47.6217 17.6621 48.7784 19.0512V23.6477L53.9839 29.1023L56.2148 28.0604C57.1856 30.9 58.1978 38.4179 54.4796 45.7723C49.8319 54.9653 39.607 55.8233 38.4295 55.9459C37.2521 56.0685 32.5424 55.5169 32.0467 54.9653C31.6501 54.5241 30.7247 54.3729 30.3115 54.3524L29.5059 48.285Z" stroke="url(#paint5_radial_9_794)"/>
<path d="M14.3234 48.7141C13.7781 48.1747 9.9236 46.5282 8.06452 45.7723C8.62224 49.3065 12.4396 57.6865 23.247 62.9326C34.0545 68.1788 43.8622 66.0991 47.4151 64.4035L48.2207 62.1972H44.8744L39.2971 57.6619L36.1367 59.6844L29.8158 56.3749C28.8243 55.905 26.3827 54.7692 24.5484 53.9847C22.7141 53.2003 19.157 48.9184 17.6078 46.8755C16.7402 47.713 14.8688 49.2534 14.3234 48.7141Z" stroke="url(#paint6_radial_9_794)"/>
<path d="M51.0713 69L48.8404 65.4454L53.6121 63.239V67.2227L51.0713 69Z" stroke="url(#paint7_radial_9_794)"/>
<path d="M45.7419 60.5424L41.7139 57.1104C42.8707 56.8652 45.3825 56.2891 46.1757 55.9459C47.1672 55.5169 51.753 53.6783 56.8345 46.0787C60.8997 39.9991 59.3959 31.5333 58.1358 28.0604L63.2173 33.8826L67.6791 32.473C67.5139 36.0685 66.5513 44.7059 64.0229 50.4914C61.4946 56.2769 53.3435 61.4004 49.584 63.239L50.3896 60.5424H45.7419Z" stroke="url(#paint8_radial_9_794)"/>
<path d="M62.3497 55.9459L56.8345 61.1553L59.9329 61.5843L62.3497 59.6844V55.9459Z" stroke="url(#paint9_radial_9_794)"/>
<path d="M69.0424 41.7886C68.6954 44.3872 67.0388 48.1012 66.2538 49.6334H68.0509L69.0424 46.5077L74 43.6273L71.7691 39.2759V35.8438L69.0424 32.473C69.187 34.4955 69.3895 39.1901 69.0424 41.7886Z" stroke="url(#paint10_radial_9_794)"/>
<path d="M54.3557 27.0185L50.4516 23.0962V20.3995C51.1539 21.0737 52.6825 22.5568 53.1783 23.0962C53.674 23.6355 55.0787 25.5272 55.719 26.4057L54.3557 27.0185Z" stroke="url(#paint11_radial_9_794)"/>
<path d="M47.4151 7.40673L43.8829 5.75199C45.68 6.16057 49.7452 7.24739 51.629 8.32604C53.9839 9.67435 57.8879 12.6161 61.9779 17.5191C65.2499 21.4414 66.9355 27.897 67.3693 30.6344L63.5272 31.7989L58.1358 25.7315H57.3302C56.442 24.3423 54.5292 21.4414 53.9839 20.9511C53.3022 20.3383 50.7615 18.5609 49.9559 17.5191C49.3114 16.6856 48.2001 13.4128 47.725 11.8807L47.4151 7.40673Z" stroke="url(#paint12_radial_9_794)"/>
<defs>
<radialGradient id="paint0_radial_9_794" cx="0" cy="0" r="1" gradientUnits="userSpaceOnUse" gradientTransform="translate(37.5 35) rotate(90) scale(34 36.5)">
<stop stop-color="#336099"/>
<stop offset="1" stop-color="#9D495D"/>
</radialGradient>
<radialGradient id="paint1_radial_9_794" cx="0" cy="0" r="1" gradientUnits="userSpaceOnUse" gradientTransform="translate(37.5 35) rotate(90) scale(34 36.5)">
<stop stop-color="#336099"/>
<stop offset="1" stop-color="#9D495D"/>
</radialGradient>
<radialGradient id="paint2_radial_9_794" cx="0" cy="0" r="1" gradientUnits="userSpaceOnUse" gradientTransform="translate(37.5 35) rotate(90) scale(34 36.5)">
<stop stop-color="#336099"/>
<stop offset="1" stop-color="#9D495D"/>
</radialGradient>
<radialGradient id="paint3_radial_9_794" cx="0" cy="0" r="1" gradientUnits="userSpaceOnUse" gradientTransform="translate(37.5 35) rotate(90) scale(34 36.5)">
<stop stop-color="#336099"/>
<stop offset="1" stop-color="#9D495D"/>
</radialGradient>
<radialGradient id="paint4_radial_9_794" cx="0" cy="0" r="1" gradientUnits="userSpaceOnUse" gradientTransform="translate(37.5 35) rotate(90) scale(34 36.5)">
<stop stop-color="#336099"/>
<stop offset="1" stop-color="#9D495D"/>
</radialGradient>
<radialGradient id="paint5_radial_9_794" cx="0" cy="0" r="1" gradientUnits="userSpaceOnUse" gradientTransform="translate(37.5 35) rotate(90) scale(34 36.5)">
<stop stop-color="#336099"/>
<stop offset="1" stop-color="#9D495D"/>
</radialGradient>
<radialGradient id="paint6_radial_9_794" cx="0" cy="0" r="1" gradientUnits="userSpaceOnUse" gradientTransform="translate(37.5 35) rotate(90) scale(34 36.5)">
<stop stop-color="#336099"/>
<stop offset="1" stop-color="#9D495D"/>
</radialGradient>
<radialGradient id="paint7_radial_9_794" cx="0" cy="0" r="1" gradientUnits="userSpaceOnUse" gradientTransform="translate(37.5 35) rotate(90) scale(34 36.5)">
<stop stop-color="#336099"/>
<stop offset="1" stop-color="#9D495D"/>
</radialGradient>
<radialGradient id="paint8_radial_9_794" cx="0" cy="0" r="1" gradientUnits="userSpaceOnUse" gradientTransform="translate(37.5 35) rotate(90) scale(34 36.5)">
<stop stop-color="#336099"/>
<stop offset="1" stop-color="#9D495D"/>
</radialGradient>
<radialGradient id="paint9_radial_9_794" cx="0" cy="0" r="1" gradientUnits="userSpaceOnUse" gradientTransform="translate(37.5 35) rotate(90) scale(34 36.5)">
<stop stop-color="#336099"/>
<stop offset="1" stop-color="#9D495D"/>
</radialGradient>
<radialGradient id="paint10_radial_9_794" cx="0" cy="0" r="1" gradientUnits="userSpaceOnUse" gradientTransform="translate(37.5 35) rotate(90) scale(34 36.5)">
<stop stop-color="#336099"/>
<stop offset="1" stop-color="#9D495D"/>
</radialGradient>
<radialGradient id="paint11_radial_9_794" cx="0" cy="0" r="1" gradientUnits="userSpaceOnUse" gradientTransform="translate(37.5 35) rotate(90) scale(34 36.5)">
<stop stop-color="#336099"/>
<stop offset="1" stop-color="#9D495D"/>
</radialGradient>
<radialGradient id="paint12_radial_9_794" cx="0" cy="0" r="1" gradientUnits="userSpaceOnUse" gradientTransform="translate(37.5 35) rotate(90) scale(34 36.5)">
<stop stop-color="#336099"/>
<stop offset="1" stop-color="#9D495D"/>
</radialGradient>
</defs>
</svg>
